<svg width="28" height="18" viewBox="0 0 28 18" fill="none" xmlns="http://www.w3.org/2000/svg">
<path d="M17.6432 15.4758H10.3564V2.52905H17.6432V15.4758Z" fill="#6C6BBD"/>
<path d="M10.8233 9.00001C10.8233 6.37369 12.0671 4.03424 14.004 2.5266C12.5876 1.42414 10.8 0.766125 8.85725 0.766125C4.258 0.766125 0.529785 4.4525 0.529785 9.00001C0.529785 13.5475 4.258 17.2339 8.85725 17.2339C10.8 17.2339 12.5876 16.5759 14.004 15.4734C12.0671 13.9658 10.8233 11.6263 10.8233 9.00001Z" fill="#EB001B"/>
<path d="M27.4704 9.00001C27.4704 13.5475 23.7421 17.2339 19.1429 17.2339C17.2001 17.2339 15.4126 16.5759 13.9956 15.4734C15.9331 13.9658 17.1769 11.6263 17.1769 9.00001C17.1769 6.37369 15.9331 4.03424 13.9956 2.5266C15.4126 1.42414 17.2001 0.766125 19.1429 0.766125C23.7421 0.766125 27.4704 4.4525 27.4704 9.00001Z" fill="#0099DF"/>
</svg>
